<?xml version="1.0" encoding="UTF-8"?>
<svg xmlns="http://www.w3.org/2000/svg" version="1.1" viewBox="0 0 459.1 153.7">
  <!-- Generator: Adobe Illustrator 28.6.0, SVG Export Plug-In . SVG Version: 1.2.0 Build 709)  -->
  <g>
    <g id="Layer_1">
      <g>
        <path d="M40.6,113.1v-13h4c1.1,0,2.2.3,3.1.8.9.5,1.6,1.2,2.1,2.2s.8,2,.8,3.2v.6c0,1.2-.2,2.3-.7,3.2-.5.9-1.2,1.7-2.1,2.2-.9.5-1.9.8-3.1.8h-4ZM43.3,102.3v8.7h1.3c1,0,1.8-.3,2.4-1,.6-.7.8-1.7.8-2.9v-.7c0-1.3-.3-2.3-.8-3-.5-.7-1.3-1-2.4-1h-1.3Z" style="fill: #fff;"/>
        <path d="M62.3,100.1v8.6c0,1.4-.4,2.5-1.3,3.4-.9.8-2.1,1.2-3.6,1.2s-2.7-.4-3.6-1.2-1.3-1.9-1.4-3.3v-8.7h2.7v8.6c0,.9.2,1.5.6,1.9s1,.6,1.7.6c1.5,0,2.3-.8,2.3-2.4v-8.6h2.7Z" style="fill: #fff;"/>
        <path d="M71.6,110.4h-4.7l-.9,2.7h-2.8l4.8-13h2.5l4.9,13h-2.8l-.9-2.7ZM67.7,108.2h3.2l-1.6-4.9-1.6,4.9Z" style="fill: #fff;"/>
        <path d="M79.3,110.9h5.7v2.1h-8.4v-13h2.7v10.8Z" style="fill: #fff;"/>
        <path d="M98.8,107.8h-5.1v5.3h-2.7v-13h8.5v2.2h-5.8v3.4h5.1v2.2Z" style="fill: #fff;"/>
        <path d="M111.7,106.9c0,1.3-.2,2.4-.7,3.4-.5,1-1.1,1.7-1.9,2.2-.8.5-1.8.8-2.9.8s-2-.3-2.9-.8c-.8-.5-1.5-1.3-2-2.2-.5-1-.7-2.1-.7-3.3v-.6c0-1.3.2-2.4.7-3.4.5-1,1.1-1.7,2-2.2.8-.5,1.8-.8,2.9-.8s2,.3,2.9.8c.8.5,1.5,1.3,2,2.2.5,1,.7,2.1.7,3.4v.6ZM109,106.3c0-1.4-.2-2.4-.7-3.1-.5-.7-1.2-1.1-2.1-1.1s-1.6.3-2.1,1c-.5.7-.7,1.7-.7,3.1v.6c0,1.3.2,2.4.7,3.1s1.2,1.1,2.1,1.1,1.6-.4,2.1-1.1c.5-.7.7-1.7.7-3.1v-.6Z" style="fill: #fff;"/>
        <path d="M118.5,108.3h-2.1v4.8h-2.7v-13h4.8c1.5,0,2.7.3,3.5,1,.8.7,1.2,1.7,1.2,2.9s-.2,1.6-.6,2.2-1,1.1-1.7,1.4l2.8,5.3h0c0,.1-2.9.1-2.9.1l-2.4-4.8ZM116.3,106.1h2.2c.7,0,1.2-.2,1.6-.5.4-.3.6-.8.6-1.4s-.2-1.1-.5-1.4c-.3-.4-.9-.5-1.6-.5h-2.1v3.9Z" style="fill: #fff;"/>
        <path d="M135.5,108.7c-.1,1.4-.6,2.5-1.5,3.3s-2.2,1.2-3.7,1.2-3-.6-3.9-1.7c-1-1.1-1.4-2.7-1.4-4.6v-.8c0-1.2.2-2.3.7-3.3.4-1,1.1-1.7,1.9-2.2.8-.5,1.8-.8,2.9-.8s2.7.4,3.6,1.2,1.4,1.9,1.6,3.4h-2.7c0-.8-.3-1.4-.7-1.8-.4-.4-1-.6-1.8-.6s-1.6.3-2,1c-.4.6-.7,1.6-.7,3v1c0,1.4.2,2.4.6,3.1.4.6,1.1,1,2,1s1.4-.2,1.9-.6.6-1,.7-1.8h2.7Z" style="fill: #fff;"/>
        <path d="M145.1,107.4h-5.1v3.5h6v2.1h-8.7v-13h8.7v2.2h-6v3.1h5.1v2.1Z" style="fill: #fff;"/>
        <path d="M154.8,108.5v4.6h-2.7v-13h5.1c1,0,1.8.2,2.6.5s1.3.9,1.7,1.5c.4.7.6,1.4.6,2.2,0,1.3-.4,2.3-1.3,3s-2.1,1.1-3.6,1.1h-2.3ZM154.8,106.3h2.4c.7,0,1.2-.2,1.6-.5.4-.3.6-.8.6-1.4s-.2-1.2-.6-1.5c-.4-.4-.9-.6-1.6-.6h-2.5v4.1Z" style="fill: #fff;"/>
        <path d="M166.5,110.9h5.7v2.1h-8.4v-13h2.7v10.8Z" style="fill: #fff;"/>
        <path d="M181.3,110.4h-4.7l-.9,2.7h-2.8l4.8-13h2.5l4.9,13h-2.8l-.9-2.7ZM177.3,108.2h3.2l-1.6-4.9-1.6,4.9Z" style="fill: #fff;"/>
        <path d="M194.9,102.3h-4v10.8h-2.7v-10.8h-3.9v-2.2h10.6v2.2Z" style="fill: #fff;"/>
        <path d="M204.3,107.4h-5.1v3.5h6v2.1h-8.7v-13h8.7v2.2h-6v3.1h5.1v2.1Z" style="fill: #fff;"/>
        <path d="M218,109.7c0-.5-.2-.9-.5-1.2-.4-.3-1-.6-1.9-.9-.9-.3-1.7-.6-2.2-.9-1.5-.8-2.2-1.9-2.2-3.2s.2-1.3.6-1.9,1-1,1.7-1.3c.7-.3,1.6-.5,2.5-.5s1.8.2,2.5.5,1.3.8,1.7,1.4.6,1.3.6,2.1h-2.7c0-.6-.2-1.1-.6-1.4-.4-.3-.9-.5-1.6-.5s-1.2.1-1.5.4c-.4.3-.5.6-.5,1.1s.2.8.6,1.1c.4.3,1.1.6,1.9.8,1.5.5,2.6,1,3.3,1.7.7.7,1,1.5,1,2.5s-.4,2-1.3,2.6c-.9.6-2,1-3.4,1s-1.9-.2-2.7-.5c-.8-.4-1.4-.9-1.9-1.5-.4-.6-.6-1.4-.6-2.2h2.7c0,1.4.9,2.1,2.6,2.1s1.1-.1,1.5-.4c.4-.3.5-.6.5-1.1Z" style="fill: #fff;"/>
        <path d="M227,105.9l2.7-5.9h2.9l-4.3,8.3v4.7h-2.7v-4.7l-4.3-8.3h2.9l2.7,5.9Z" style="fill: #fff;"/>
        <path d="M240.4,109.7c0-.5-.2-.9-.5-1.2-.4-.3-1-.6-1.9-.9-.9-.3-1.7-.6-2.2-.9-1.5-.8-2.2-1.9-2.2-3.2s.2-1.3.6-1.9,1-1,1.7-1.3c.7-.3,1.6-.5,2.5-.5s1.8.2,2.5.5,1.3.8,1.7,1.4.6,1.3.6,2.1h-2.7c0-.6-.2-1.1-.6-1.4-.4-.3-.9-.5-1.6-.5s-1.2.1-1.5.4c-.4.3-.5.6-.5,1.1s.2.8.6,1.1c.4.3,1.1.6,1.9.8,1.5.5,2.6,1,3.3,1.7.7.7,1,1.5,1,2.5s-.4,2-1.3,2.6c-.9.6-2,1-3.4,1s-1.9-.2-2.7-.5c-.8-.4-1.4-.9-1.9-1.5-.4-.6-.6-1.4-.6-2.2h2.7c0,1.4.9,2.1,2.6,2.1s1.1-.1,1.5-.4c.4-.3.5-.6.5-1.1Z" style="fill: #fff;"/>
        <path d="M254.7,102.3h-4v10.8h-2.7v-10.8h-3.9v-2.2h10.6v2.2Z" style="fill: #fff;"/>
        <path d="M264,107.4h-5.1v3.5h6v2.1h-8.7v-13h8.7v2.2h-6v3.1h5.1v2.1Z" style="fill: #fff;"/>
        <path d="M270,100.1l3.3,9.4,3.3-9.4h3.5v13h-2.7v-3.5l.3-6.1-3.5,9.7h-1.8l-3.5-9.7.3,6.1v3.5h-2.7v-13h3.5Z" style="fill: #fff;"/>
      </g>
      <g>
        <polygon points="69.2 49.2 72.6 40.5 40.5 40.5 40.5 81 49.2 81 49.2 65.4 62.7 65.4 65.5 58.3 49.2 58.3 49.2 49.2 69.2 49.2" style="fill: #fff;"/>
        <polygon points="195.7 80.9 227.1 80.9 227.1 73.4 204.3 73.4 204.3 64.4 218.7 64.4 221.4 57.4 204.3 57.4 204.3 47.7 227.1 47.7 227.1 40.5 195.7 40.5 195.7 80.9" style="fill: #fff;"/>
        <path d="M91.8,39.9c-11.4,0-20.7,9.3-20.7,20.7s9.3,20.7,20.7,20.7,20.7-9.3,20.7-20.7-9.3-20.7-20.7-20.7ZM91.8,72.7c-6.7,0-12.1-5.4-12.1-12.1s5.4-12.1,12.1-12.1,12.1,5.4,12.1,12.1-5.4,12.1-12.1,12.1Z" style="fill: #fff;"/>
        <path d="M145,63.2c2.2-2.2,3.4-5,3.4-8.2v-2.9c0-3.2-1.1-5.9-3.4-8.2-2.2-2.2-5-3.4-8.2-3.4h-21.3v40.3h8v-14.4h4.1l12.2,14.4h9.5l-12.6-14.4c3.2,0,5.9-1.1,8.2-3.4ZM123.5,58.9v-10.3h14.4c.8,0,1.5.4,2,1.3.6.8.8,1.9.8,3.1v1.7c0,1.2-.3,2.2-.8,3.1-.6.8-1.2,1.3-2,1.3h-14.4Z" style="fill: #fff;"/>
        <polygon points="273.2 80.9 304.6 80.9 304.6 73.4 281.9 73.4 281.9 64.4 296.2 64.4 299 57.4 281.9 57.4 281.9 47.7 304.6 47.7 304.6 40.5 273.2 40.5 273.2 80.9" style="fill: #fff;"/>
        <polygon points="375 40.5 360.1 56.5 360.1 40.5 351.6 40.5 351.6 80.9 360.1 80.9 360.1 64.9 376 80.9 385.6 80.9 366.6 60.7 385.6 40.5 375 40.5" style="fill: #fff;"/>
        <path d="M172.5,48.5c4.6,0,8.6,2.6,10.6,6.4l7.6-3.9c-3.5-6.6-10.3-11-18.3-11-11.4,0-20.7,9.3-20.7,20.7s9.3,20.7,20.7,20.7,14.6-4.4,18.1-10.8l-7.6-4c-2.1,3.7-6,6.1-10.5,6.1-6.7,0-12.1-5.4-12.1-12.1s5.4-12.1,12.1-12.1Z" style="fill: #fff;"/>
        <path d="M326.6,48.5c4.6,0,8.6,2.6,10.6,6.4l7.6-3.9c-3.5-6.6-10.3-11-18.3-11-11.4,0-20.7,9.3-20.7,20.7s9.3,20.7,20.7,20.7,14.6-4.4,18.1-10.8l-7.6-4c-2.1,3.7-6,6.1-10.5,6.1-6.7,0-12.1-5.4-12.1-12.1s5.4-12.1,12.1-12.1Z" style="fill: #fff;"/>
      </g>
      <path d="M407.2,56.3h-9.6c-.2,0-.7,0-1.3-.8-.4-.7-.7-1.4-.7-2.4v-1.5c0-.9.2-1.7.6-2.4.6-.8,1.2-.8,1.4-.8h17.7l3.2-8.3h-20c-3.1,0-5.7,1.1-7.9,3.3-2.2,2.2-3.3,4.8-3.3,7.9v2.6c0,3.1,1.1,5.7,3.3,7.9,2.2,2.2,4.8,3.3,7.9,3.3h9.6c.2,0,.7,0,1.3.8.4.7.7,1.4.7,2.4v1.5c0,.9-.2,1.7-.6,2.4-.6.8-1.1.8-1.3.8h-17.8l-3.2,8.3h20c3.1,0,5.7-1.1,7.9-3.3,2.2-2.2,3.3-4.8,3.3-7.9v-2.6c0-3.1-1.1-5.7-3.3-7.9-2.2-2.2-4.8-3.3-7.9-3.3Z" style="fill: #fff;"/>
      <path d="M248.7,40.5h-15.9v40.6h15.9c11.2,0,20.3-9.1,20.3-20.3s-9.1-20.3-20.3-20.3ZM248.7,73h-7.6v-24.4h7.6c6.7,0,12.2,5.5,12.2,12.2s-5.5,12.2-12.2,12.2Z" style="fill: #fff;"/>
    </g>
  </g>
</svg>